<?xml version="1.0" encoding="utf-8"?>
<!-- Generator: Adobe Illustrator 25.3.1, SVG Export Plug-In . SVG Version: 6.00 Build 0)  -->
<svg version="1.1" id="Layer_1" xmlns="http://www.w3.org/2000/svg" xmlns:xlink="http://www.w3.org/1999/xlink" x="0px" y="0px"
	 viewBox="0 0 20.9 19.8" style="enable-background:new 0 0 20.9 19.8;" xml:space="preserve">
<style type="text/css">
	.st0{fill:#98C1D9;}
	.st1{fill:#3D5A80;}
</style>
<text transform="matrix(1 0 0 1 -1.6172 -35.8296)" style="font-family:'Centauri'; font-size:12px;">IOYNE</text>
<g>
	<path class="st0" d="M11.5-100.8c0.5,0,0.9,0.2,1.2,0.5c0.3,0.4,0.5,0.8,0.5,1.2v16.3c0,0.4-0.1,0.7-0.3,1
		c-0.2,0.3-0.4,0.5-0.8,0.7C11.9-81,11.7-81,11.4-81c-0.5,0-0.9-0.2-1.2-0.5L-4.1-94.9v12.1c0,0.5-0.2,0.9-0.5,1.3
		C-4.9-81.2-5.4-81-5.8-81s-0.9-0.2-1.2-0.5c-0.3-0.3-0.6-0.8-0.6-1.3V-99c0-0.4,0.1-0.7,0.3-1c0.2-0.3,0.5-0.5,0.8-0.7
		c0.3-0.1,0.6-0.1,1-0.1c0.4,0,0.6,0.2,0.9,0.5L9.7-86.9V-99c0-0.5,0.2-0.9,0.5-1.2C10.6-100.6,11-100.8,11.5-100.8z"/>
	<path class="st0" d="M36.2-100.8c0.5,0,0.9,0.2,1.2,0.5c0.4,0.4,0.5,0.8,0.5,1.2s-0.2,1-0.5,1.3c-0.4,0.3-0.8,0.5-1.2,0.5H18.9
		c-0.5,0-0.9-0.2-1.2-0.5c-0.3-0.3-0.5-0.8-0.5-1.2s0.2-0.9,0.5-1.2c0.3-0.4,0.7-0.6,1.2-0.6H36.2z M36.2-92.6
		c0.5,0,0.9,0.2,1.2,0.5c0.4,0.3,0.5,0.8,0.5,1.2s-0.2,0.9-0.5,1.2c-0.4,0.4-0.8,0.5-1.2,0.5H18.9c-0.5,0-0.9-0.2-1.2-0.5
		c-0.3-0.4-0.5-0.8-0.5-1.2s0.2-0.9,0.5-1.2c0.3-0.3,0.8-0.5,1.2-0.5H36.2z M36.2-84.5c0.5,0,0.9,0.2,1.2,0.5
		c0.4,0.3,0.5,0.8,0.5,1.2c0,0.5-0.2,0.9-0.5,1.3C37-81.2,36.6-81,36.2-81H18.9c-0.5,0-0.9-0.2-1.2-0.5c-0.3-0.3-0.5-0.8-0.5-1.3
		s0.2-0.9,0.5-1.2s0.8-0.5,1.2-0.5H36.2z"/>
	<path class="st1" d="M58.4-92.2c-0.4,0.5-0.9,0.9-1.4,1.3c1,0.8,1.9,1.7,2.5,2.9l2.4,4.4c0.2,0.4,0.3,0.9,0.1,1.3
		c-0.1,0.5-0.4,0.8-0.8,1c-0.2,0.1-0.5,0.2-0.8,0.2s-0.6-0.1-0.9-0.2c-0.3-0.1-0.5-0.4-0.7-0.7l-2.4-4.3c-0.5-0.9-1.1-1.6-2-2.1
		c-0.8-0.5-1.7-0.7-2.7-0.7s-1.9,0.2-2.7,0.7s-1.5,1.2-2,2.1l-2.4,4.4c-0.2,0.3-0.4,0.5-0.7,0.7C43.6-81,43.3-81,43-81
		c-0.1,0-0.3,0-0.4,0c-0.1,0-0.3-0.1-0.4-0.2c-0.4-0.2-0.7-0.6-0.9-1c-0.2-0.4-0.1-0.9,0.1-1.3l2.4-4.4c0.6-1.2,1.5-2.1,2.5-2.9
		c-1-0.8-1.9-1.7-2.5-2.9l-2.4-4.4c-0.2-0.4-0.3-0.9-0.1-1.3c0.1-0.5,0.4-0.8,0.9-1.1c0.5-0.3,0.9-0.3,1.3-0.1
		c0.5,0.1,0.8,0.4,1.1,0.9l2.4,4.4c0.5,0.9,1.1,1.6,2,2.1s1.7,0.7,2.7,0.7s1.9-0.3,2.7-0.7s1.5-1.2,2-2.1l2.4-4.4
		c0.2-0.4,0.6-0.7,1.1-0.9c0.5-0.1,0.9-0.1,1.3,0.1c0.4,0.2,0.7,0.6,0.8,1.1c0.1,0.5,0.1,0.9-0.1,1.3l-2.4,4.3
		C59.2-93.2,58.8-92.7,58.4-92.2z"/>
	<path class="st0" d="M84.5-100.8c0.5,0,0.9,0.2,1.2,0.5c0.3,0.4,0.5,0.8,0.5,1.2v8.1c0,0.7,0,1.3-0.2,1.9c-0.1,0.6-0.3,1.2-0.5,1.8
		c-0.4,1.2-1,2.3-1.9,3.2c-0.9,1-1.9,1.7-3.2,2.2c-1.2,0.5-2.6,0.7-4.1,0.7h-1.2c-1.5,0-2.9-0.2-4.1-0.7s-2.3-1.2-3.2-2.2
		c-0.9-0.9-1.5-2-1.9-3.2c-0.4-1.2-0.6-2.4-0.6-3.7v-8c0-0.5,0.2-0.9,0.5-1.2c0.5-0.4,0.9-0.6,1.4-0.6s0.9,0.2,1.2,0.5
		c0.4,0.4,0.5,0.8,0.5,1.2v8.1c0,0.8,0.1,1.5,0.3,2.3c0.2,0.8,0.6,1.4,1.1,2c0.5,0.6,1.1,1.1,1.9,1.5c0.8,0.4,1.8,0.6,2.9,0.6h1.2
		c1.2,0,2.1-0.2,2.9-0.6c0.8-0.4,1.4-0.9,1.9-1.5c0.5-0.6,0.8-1.3,1.1-2c0.2-0.8,0.3-1.5,0.3-2.3v-8c0-0.5,0.2-0.9,0.5-1.2
		C83.6-100.6,84-100.8,84.5-100.8z"/>
	<path class="st0" d="M106.8-92.2c0.7,0.3,1.3,0.7,1.9,1.2c0.5,0.5,0.9,1.1,1.2,1.9c0.3,0.7,0.5,1.5,0.5,2.3c0,0.8-0.2,1.6-0.5,2.3
		s-0.7,1.3-1.2,1.8s-1.1,0.9-1.9,1.2c-0.7,0.3-1.5,0.5-2.3,0.5H92.4c-0.5,0-0.9-0.2-1.2-0.5c-0.3-0.3-0.5-0.8-0.5-1.3
		s0.2-0.9,0.5-1.2c0.4-0.3,0.8-0.5,1.2-0.5h12.1c0.6,0,1.2-0.2,1.6-0.7c0.4-0.4,0.7-1,0.7-1.6c0-0.6-0.2-1.2-0.7-1.6
		c-0.4-0.4-1-0.7-1.6-0.7h-9.1c-0.8,0-1.6-0.2-2.3-0.5c-0.7-0.3-1.3-0.7-1.8-1.2s-0.9-1.1-1.2-1.9c-0.3-0.7-0.5-1.5-0.5-2.3
		s0.2-1.5,0.5-2.3c0.3-0.7,0.7-1.3,1.2-1.9c0.5-0.5,1.1-1,1.8-1.3c0.7-0.3,1.5-0.5,2.3-0.5h12.1c0.5,0,0.9,0.2,1.2,0.5
		c0.3,0.4,0.5,0.8,0.5,1.2c0,0.4-0.2,0.9-0.5,1.2c-0.4,0.3-0.8,0.5-1.2,0.5H95.4c-0.6,0-1.2,0.2-1.6,0.7s-0.7,1-0.7,1.7
		c0,0.6,0.2,1.2,0.7,1.6c0.4,0.5,1,0.7,1.6,0.7h9.2C105.4-92.6,106.1-92.5,106.8-92.2z"/>
</g>
<g>
	<path class="st1" d="M0-72c-0.1,1.1-0.5,1.9-1.2,2.5s-1.5,0.9-2.6,0.9c-0.8,0-1.4-0.2-2-0.6c-0.6-0.4-1-0.9-1.4-1.6
		c-0.3-0.7-0.5-1.5-0.5-2.4v-1.3c0-0.9,0.2-1.7,0.5-2.4c0.3-0.7,0.8-1.3,1.4-1.6c0.6-0.4,1.3-0.6,2.1-0.6c1.1,0,2,0.3,2.6,0.9
		c0.6,0.6,1,1.4,1.1,2.5h-0.9c-0.2-1.8-1.2-2.6-2.9-2.6c-0.9,0-1.7,0.4-2.2,1c-0.6,0.6-0.8,1.5-0.8,2.8v1.3c0,1.2,0.3,2.1,0.8,2.8
		s1.3,1.1,2.2,1.1s1.6-0.2,2.1-0.7c0.5-0.4,0.7-1.1,0.9-2C-0.8-72,0-72,0-72z"/>
	<path class="st1" d="M3-69.5h5.1v0.7h-6v-10.3H3V-69.5z"/>
	<path class="st1" d="M10.8-68.8H9.9v-10.3h0.9V-68.8z"/>
	<path class="st1" d="M19.3-73.7h-4.8v4.2H20v0.7h-6.4v-10.3H20v0.7h-5.5v3.9h4.8C19.3-74.5,19.3-73.7,19.3-73.7z"/>
	<path class="st1" d="M29.5-68.8h-0.9l-5.9-8.8v8.8h-0.9v-10.3h0.9l5.9,8.8v-8.8h0.9V-68.8z"/>
	<path class="st1" d="M38.9-78.4h-3.5v9.6h-0.9v-9.6H31v-0.7h7.9V-78.4z"/>
	<path class="st1" d="M45-79.1l3.8,9.1l3.8-9.1h1.2v10.3h-0.9v-4.5l0.1-4.6l-3.9,9.1h-0.7l-3.8-9l0.1,4.5v4.5h-0.9v-10.3H45z"/>
	<path class="st1" d="M62.1-71.7h-4.7l-1.1,2.9h-0.9l3.9-10.3h0.8L64-68.8h-0.9L62.1-71.7z M57.8-72.4h4.1L59.8-78L57.8-72.4z"/>
	<path class="st1" d="M73.2-68.8h-0.8l-6-8.8v8.8h-0.9v-10.3h0.9l5.9,8.8v-8.8h0.9V-68.8z"/>
	<path class="st1" d="M81.6-71.7h-4.7l-1.1,2.9h-0.9l3.9-10.3h0.8l3.9,10.3h-0.9L81.6-71.7z M77.1-72.4h4.1L79.1-78L77.1-72.4z"/>
	<path class="st1" d="M92.4-70c-0.3,0.4-0.8,0.8-1.4,1c-0.6,0.2-1.4,0.4-2.2,0.4c-0.8,0-1.5-0.2-2.2-0.6c-0.6-0.4-1.1-0.9-1.5-1.6
		c-0.4-0.7-0.5-1.5-0.5-2.4v-1.3c0-1.4,0.4-2.6,1.1-3.4c0.7-0.8,1.7-1.2,2.9-1.2c1.1,0,1.9,0.3,2.6,0.8c0.6,0.5,1,1.3,1.2,2.2h-0.9
		c-0.1-0.8-0.4-1.3-0.9-1.7c-0.5-0.4-1.1-0.6-1.9-0.6c-1,0-1.7,0.3-2.3,1c-0.6,0.7-0.8,1.7-0.8,2.9v1.2c0,0.8,0.1,1.5,0.4,2.1
		c0.3,0.6,0.6,1.1,1.1,1.4c0.5,0.3,1.1,0.5,1.7,0.5c0.8,0,1.4-0.1,1.9-0.4c0.3-0.2,0.6-0.3,0.8-0.5v-2.7h-2.8v-0.7h3.6v3.6H92.4z"/>
	<path class="st1" d="M100.6-73.7h-4.8v4.2h5.5v0.7h-6.4v-10.3h6.4v0.7h-5.5v3.9h4.8V-73.7z"/>
	<path class="st1" d="M107-73.1h-3v4.3h-0.9v-10.3h3.3c1.1,0,2,0.3,2.6,0.8s0.9,1.3,0.9,2.2c0,0.7-0.2,1.2-0.6,1.7s-0.9,0.9-1.6,1
		l2.6,4.4v0.2h-0.9L107-73.1z M104-73.8h2.7c0.7,0,1.3-0.2,1.8-0.6c0.4-0.4,0.7-1,0.7-1.6c0-0.7-0.2-1.3-0.7-1.7
		c-0.5-0.4-1.1-0.6-1.9-0.6h-2.5L104-73.8L104-73.8z"/>
</g>
<g>
	<g>
		<path class="st1" d="M17.2,8.6c-0.4,0.5-0.9,0.9-1.4,1.3c1,0.8,1.9,1.7,2.5,2.9l2.4,4.4c0.2,0.4,0.3,0.9,0.1,1.3
			c-0.1,0.5-0.4,0.8-0.8,1c-0.2,0.1-0.5,0.2-0.8,0.2c-0.3,0-0.6-0.1-0.9-0.2c-0.3-0.2-0.5-0.4-0.7-0.7l-2.4-4.4
			c-0.5-0.9-1.1-1.6-2-2.1c-0.8-0.5-1.7-0.7-2.7-0.7s-1.9,0.2-2.7,0.7c-0.8,0.5-1.5,1.2-2,2.1l-2.4,4.4c-0.2,0.3-0.4,0.5-0.7,0.7
			c-0.3,0.2-0.6,0.2-0.9,0.2c-0.1,0-0.3,0-0.4,0S1.1,19.6,1,19.5c-0.4-0.2-0.7-0.6-0.9-1C0,18,0,17.6,0.2,17.2l2.4-4.4
			c0.6-1.2,1.5-2.1,2.5-2.9C4.1,9.1,3.2,8.2,2.6,7L0.2,2.6C0,2.2-0.1,1.7,0.1,1.3C0.2,0.8,0.5,0.5,1,0.2C1.4,0,1.9-0.1,2.4,0.1
			C2.9,0.2,3.2,0.5,3.5,1l2.4,4.4C6.4,6.3,7,7,7.9,7.5C8.7,8,9.6,8.2,10.6,8.2s1.9-0.3,2.7-0.7c0.8-0.5,1.5-1.2,2-2.1L17.7,1
			c0.2-0.4,0.6-0.7,1.1-0.9C19.1-0.1,19.6,0,20,0.2c0.4,0.3,0.7,0.6,0.8,1.1c0.1,0.5,0.1,0.9-0.1,1.3L18.3,7
			C18,7.6,17.6,8.1,17.2,8.6z"/>
	</g>
	<circle class="st0" cx="10.5" cy="2.8" r="2.8"/>
	<circle class="st0" cx="10.5" cy="17" r="2.8"/>
</g>
</svg>
