<?xml version="1.0" encoding="utf-8"?>
<!-- Generator: Adobe Illustrator 25.3.1, SVG Export Plug-In . SVG Version: 6.00 Build 0)  -->
<svg version="1.1" id="Layer_1" xmlns="http://www.w3.org/2000/svg" xmlns:xlink="http://www.w3.org/1999/xlink" x="0px" y="0px"
	 viewBox="0 0 118 111.7" style="enable-background:new 0 0 118 111.7;" xml:space="preserve">
<style type="text/css">
	.st0{fill:#3D5A80;}
	.st1{fill:#98C1D9;}
</style>
<g>
	<g>
		<path class="st0" d="M97.1,48.6c-2.3,2.8-5.1,5.1-7.9,7.3c5.6,4.5,10.7,9.6,14.1,16.4l13.5,24.8c1.1,2.3,1.7,5.1,0.6,7.3
			c-0.6,2.8-2.3,4.5-4.5,5.6c-1.1,0.6-2.8,1.1-4.5,1.1s-3.4-0.6-5.1-1.1c-1.7-1.1-2.8-2.3-3.9-3.9L85.8,81.3
			c-2.8-5.1-6.2-9-11.3-11.8c-4.5-2.8-9.6-3.9-15.2-3.9s-10.7,1.1-15.2,3.9s-8.5,6.8-11.3,11.8l-13.5,24.8c-1.1,1.7-2.3,2.8-3.9,3.9
			c-1.7,1.1-3.4,1.1-5.1,1.1c-0.6,0-1.7,0-2.3,0s-1.7-0.6-2.3-1.1c-2.3-1.1-3.9-3.4-5.1-5.6c-0.6-2.8-0.6-5.1,0.6-7.3l13.5-24.8
			c3.4-6.8,8.5-11.8,14.1-16.4c-5.6-4.5-10.7-9.6-14.1-16.4L1.2,14.7c-1.1-2.3-1.7-5.1-0.6-7.3c0.6-2.8,2.3-4.5,5.1-6.2
			c2.3-1.1,5.1-1.7,7.9-0.6c2.8,0.6,4.5,2.3,6.2,5.1l13.5,24.8c2.8,5.1,6.2,9,11.3,11.8c4.5,2.8,9.6,3.9,15.2,3.9s10.7-1.7,15.2-3.9
			c4.5-2.8,8.5-6.8,11.3-11.8L99.9,5.7c1.1-2.3,3.4-3.9,6.2-5.1c1.7-1.1,4.5-0.6,6.8,0.6c2.3,1.7,3.9,3.4,4.5,6.2
			c0.6,2.8,0.6,5.1-0.6,7.3l-13.5,24.8C101.6,42.9,99.3,45.7,97.1,48.6z"/>
	</g>
	<circle class="st1" cx="59.3" cy="15.8" r="15.8"/>
	<circle class="st1" cx="59.3" cy="95.9" r="15.8"/>
</g>
</svg>
