<?xml version="1.0" encoding="utf-8"?>
<!-- Generator: Adobe Illustrator 25.3.1, SVG Export Plug-In . SVG Version: 6.00 Build 0)  -->
<svg version="1.1" id="Layer_1" xmlns="http://www.w3.org/2000/svg" xmlns:xlink="http://www.w3.org/1999/xlink" x="0px" y="0px"
	 viewBox="0 0 118 19.8" style="enable-background:new 0 0 118 19.8;" xml:space="preserve">
<style type="text/css">
	.st0{fill:#98C1D9;}
	.st1{fill:#3D5A80;}
</style>
<path class="st0" d="M19.1,0c0.5,0,0.9,0.2,1.2,0.5c0.3,0.4,0.5,0.8,0.5,1.2V18c0,0.4-0.1,0.7-0.3,1s-0.4,0.5-0.8,0.7
	c-0.2,0.1-0.5,0.1-0.7,0.1c-0.5,0-0.9-0.2-1.2-0.5L3.5,5.9V18c0,0.5-0.2,0.9-0.5,1.3c-0.3,0.3-0.8,0.5-1.2,0.5s-0.9-0.2-1.2-0.5
	C0.2,18.9,0,18.5,0,18V1.8c0-0.4,0.1-0.7,0.3-1s0.5-0.5,0.8-0.7C1.4,0,1.7,0,2.1,0S2.7,0.2,3,0.5l14.3,13.4V1.8
	c0-0.5,0.2-0.9,0.5-1.2C18.2,0.2,18.6,0,19.1,0z"/>
<path class="st0" d="M43.8,0c0.5,0,0.9,0.2,1.2,0.5c0.4,0.4,0.5,0.8,0.5,1.2S45.3,2.7,45,3c-0.4,0.3-0.8,0.5-1.2,0.5H26.5
	c-0.5,0-0.9-0.2-1.2-0.5c-0.3-0.3-0.5-0.8-0.5-1.2s0.2-0.9,0.5-1.2C25.6,0.2,26,0,26.5,0H43.8z M43.8,8.2c0.5,0,0.9,0.2,1.2,0.5
	c0.4,0.3,0.5,0.8,0.5,1.2s-0.2,0.9-0.5,1.2c-0.4,0.4-0.8,0.5-1.2,0.5H26.5c-0.5,0-0.9-0.2-1.2-0.5c-0.3-0.4-0.5-0.8-0.5-1.2
	S25,9,25.3,8.7s0.8-0.5,1.2-0.5H43.8z M43.8,16.3c0.5,0,0.9,0.2,1.2,0.5c0.4,0.3,0.5,0.8,0.5,1.2c0,0.5-0.2,0.9-0.5,1.3
	c-0.4,0.3-0.8,0.5-1.2,0.5H26.5c-0.5,0-0.9-0.2-1.2-0.5C25,19,24.8,18.5,24.8,18s0.2-0.9,0.5-1.2c0.3-0.3,0.8-0.5,1.2-0.5H43.8z"/>
<path class="st1" d="M66,8.6c-0.4,0.5-0.9,0.9-1.4,1.3c1,0.8,1.9,1.7,2.5,2.9l2.4,4.4c0.2,0.4,0.3,0.9,0.1,1.3
	c-0.1,0.5-0.4,0.8-0.8,1c-0.2,0.1-0.5,0.2-0.8,0.2s-0.6-0.1-0.9-0.2s-0.5-0.4-0.7-0.7L64,14.5c-0.5-0.9-1.1-1.6-2-2.1
	c-0.8-0.5-1.7-0.7-2.7-0.7s-1.9,0.2-2.7,0.7s-1.5,1.2-2,2.1l-2.4,4.4c-0.2,0.3-0.4,0.5-0.7,0.7s-0.6,0.2-0.9,0.2c-0.1,0-0.3,0-0.4,0
	c-0.1,0-0.3-0.1-0.4-0.2c-0.4-0.2-0.7-0.6-0.9-1s-0.1-0.9,0.1-1.3l2.4-4.4c0.6-1.2,1.5-2.1,2.5-2.9c-1-0.8-1.9-1.7-2.5-2.9L49,2.7
	c-0.2-0.4-0.3-0.9-0.1-1.3c0.1-0.5,0.4-0.8,0.9-1.1s0.9-0.3,1.3-0.1c0.5,0.1,0.8,0.4,1.1,0.9l2.4,4.4c0.5,0.9,1.1,1.6,2,2.1
	s1.7,0.7,2.7,0.7S61.2,8,62,7.6s1.5-1.2,2-2.1l2.4-4.4c0.2-0.4,0.6-0.7,1.1-0.9c0.5-0.1,0.9-0.1,1.3,0.1s0.7,0.6,0.8,1.1
	c0.1,0.5,0.1,0.9-0.1,1.3L67.1,7C66.8,7.6,66.4,8.1,66,8.6z"/>
<path class="st0" d="M92.1,0c0.5,0,0.9,0.2,1.2,0.5c0.3,0.4,0.5,0.8,0.5,1.2v8.1c0,0.7,0,1.3-0.2,1.9c-0.1,0.6-0.3,1.2-0.5,1.8
	c-0.4,1.2-1,2.3-1.9,3.2c-0.9,1-1.9,1.7-3.2,2.2c-1.2,0.5-2.6,0.7-4.1,0.7h-1.2c-1.5,0-2.9-0.2-4.1-0.7s-2.3-1.2-3.2-2.2
	c-0.9-0.9-1.5-2-1.9-3.2s-0.6-2.4-0.6-3.7v-8c0-0.5,0.2-0.9,0.5-1.2C73.9,0.2,74.3,0,74.8,0s0.9,0.2,1.2,0.5
	c0.4,0.4,0.5,0.8,0.5,1.2v8.1c0,0.8,0.1,1.5,0.3,2.3c0.2,0.8,0.6,1.4,1.1,2s1.1,1.1,1.9,1.5s1.8,0.6,2.9,0.6h1.2
	c1.2,0,2.1-0.2,2.9-0.6s1.4-0.9,1.9-1.5s0.8-1.3,1.1-2s0.3-1.5,0.3-2.3v-8c0-0.5,0.2-0.9,0.5-1.2C91.2,0.2,91.6,0,92.1,0z"/>
<path class="st0" d="M114.4,8.6c0.7,0.3,1.3,0.7,1.9,1.2c0.5,0.5,0.9,1.1,1.2,1.9c0.3,0.7,0.5,1.5,0.5,2.3s-0.2,1.6-0.5,2.3
	c-0.3,0.7-0.7,1.3-1.2,1.8s-1.1,0.9-1.9,1.2c-0.7,0.3-1.5,0.5-2.3,0.5H100c-0.5,0-0.9-0.2-1.2-0.5c-0.3-0.3-0.5-0.8-0.5-1.3
	s0.2-0.9,0.5-1.2c0.4-0.3,0.8-0.5,1.2-0.5h12.1c0.6,0,1.2-0.2,1.6-0.7c0.4-0.4,0.7-1,0.7-1.6s-0.2-1.2-0.7-1.6
	c-0.4-0.4-1-0.7-1.6-0.7H103c-0.8,0-1.6-0.2-2.3-0.5c-0.7-0.3-1.3-0.7-1.8-1.2S98,8.9,97.7,8.1c-0.3-0.7-0.5-1.5-0.5-2.3
	s0.2-1.5,0.5-2.3c0.3-0.7,0.7-1.3,1.2-1.9c0.5-0.5,1.1-1,1.8-1.3c0.7-0.3,1.5-0.5,2.3-0.5h12.1c0.5,0,0.9,0.2,1.2,0.5
	c0.3,0.4,0.5,0.8,0.5,1.2s-0.2,0.9-0.5,1.2c-0.4,0.3-0.8,0.5-1.2,0.5H103c-0.6,0-1.2,0.2-1.6,0.7s-0.7,1-0.7,1.7
	c0,0.6,0.2,1.2,0.7,1.6c0.4,0.5,1,0.7,1.6,0.7h9.2C113,8.2,113.7,8.3,114.4,8.6z"/>
</svg>
